<?xml version="1.0" encoding="utf-8"?>
<!-- Generator: Adobe Illustrator 17.1.0, SVG Export Plug-In . SVG Version: 6.00 Build 0)  -->
<!DOCTYPE svg PUBLIC "-//W3C//DTD SVG 1.1//EN" "http://www.w3.org/Graphics/SVG/1.1/DTD/svg11.dtd">
<svg version="1.1" id="Layer_1" xmlns="http://www.w3.org/2000/svg" xmlns:xlink="http://www.w3.org/1999/xlink" x="0px" y="0px"
	 viewBox="0 0 283.5 56.7" enable-background="new 0 0 283.5 56.7" xml:space="preserve">
<g>
	<path fill="#FFFFFF" d="M209.3,25.8c0.8-4.1,4.2-6.4,8.3-6.4c3.6,0,7.3,2.5,7.6,6.4H209.3L209.3,25.8z M230.4,39v-5.2
		c-3.9,2.5-8.5,3.7-11.8,3.7c-5,0-9.1-2.9-9.4-7.9h21.6v-0.8c0-8.6-5.9-13.8-13.3-13.8c-7.7,0-14.8,5.4-14.8,13.2
		c0,8.5,7.2,14.2,15.6,14.2C222.3,42.4,226.9,41.3,230.4,39L230.4,39z"/>
	<path fill="#FFFFFF" d="M128.9,25.9c0.8-4.1,4.2-6.4,8.3-6.4c3.6,0,7.3,2.5,7.6,6.4H128.9L128.9,25.9z M150.1,39.1v-5.2
		c-3.9,2.5-8.5,3.7-11.8,3.7c-5,0-9.1-2.9-9.4-7.9h21.6v-0.8c0-8.6-5.9-13.8-13.3-13.8c-7.7,0-14.8,5.4-14.8,13.2
		c0,8.5,7.2,14.2,15.6,14.2C142,42.5,146.6,41.4,150.1,39.1L150.1,39.1z"/>
	<path fill="#FFFFFF" d="M56.2,28.8c0-3.8,1.4-7.1,4.3-9.8c2.9-2.7,6.3-4,10.4-4c1.9,0,3.8,0.3,5.6,1c1.8,0.7,3.3,1.7,4.7,3
		c1.4,1.4,2.5,2.9,3.2,4.5c0.7,1.6,1.1,3.4,1.1,5.2c0,1.8-0.4,3.6-1.1,5.3c-0.8,1.7-1.8,3.2-3.2,4.5c-1.4,1.3-3,2.3-4.7,3
		c-1.7,0.7-3.6,1-5.6,1c-4.1,0-7.6-1.3-10.4-4C57.6,35.8,56.2,32.6,56.2,28.8z M61.7,28.8c0,2.5,0.9,4.7,2.7,6.5
		c1.8,1.8,3.9,2.7,6.5,2.7c2.5,0,4.6-0.9,6.4-2.7c1.8-1.8,2.7-3.9,2.7-6.4c0-2.5-0.9-4.6-2.7-6.4c-1.8-1.8-3.9-2.7-6.5-2.7
		s-4.7,0.9-6.5,2.7C62.6,24.1,61.7,26.3,61.7,28.8z"/>
	<path fill="#FFFFFF" d="M89.9,41.9V15.6h5.6v3.2c4.2-3.1,8.2-3.7,11.2-3.6c3.6,0.1,5.6,0.7,7.5,2c2.2,1.6,3.4,4.4,3.4,7.3v17.5H112
		V25.8c0-2.1-0.6-3.7-2-4.8c-1-0.9-2.7-1.5-5.6-1.4c-1.3,0-5.7,0.7-9,3.4v19H89.9z"/>
	<path fill="#FFFFFF" d="M164.2,36.7l-12.1-21.1h6.4l8.9,15.4l8.3-15.4h6.3l-21.4,39.5h-6.3L164.2,36.7z"/>
	<path fill="#FFFFFF" d="M194.8,41.8h-5.4V20.1H185v-4.6h4.4v-2.4c0-2.3,0.1-3.9,0.3-5c0.2-1,0.5-1.9,1-2.7c0.8-1.2,1.8-2.2,3.1-2.9
		c1.3-0.7,2.8-1,4.5-1c0.5,0,1.1,0,1.7,0.1c1.4,0.2,3.1,0.7,3.8,1v4.6C203,7,202,6.6,200.6,6.5c-0.5-0.1-1-0.1-1.4-0.1
		c-1.6,0-2.7,0.4-3.4,1.3c-0.7,0.9-1,2.4-1,4.6v3.2h4.6v4.6h-4.6V41.8z"/>
	<path fill="#FFFFFF" d="M235.3,40.1v-5.6c1.9,1,3.7,1.8,5.5,2.4c1.8,0.5,3.4,0.8,4.8,0.8c1.6,0,2.9-0.3,3.8-0.8
		c0.9-0.5,1.5-1.4,1.5-2.3c0-1.1-1.7-2.3-5.1-3.8c-1-0.4-6.7-2.8-8.4-4.5c-1.1-1.2-1.8-2.5-1.8-4.2c0-2.2,0.9-3.9,2.8-5.2
		c1.9-1.3,4.5-1.9,7.8-1.9c1.8,0,3.5,0.2,5.1,0.5c1.6,0.4,3.3,0.9,4.8,1.6v5.1c-1.9-0.9-3.7-1.6-5.3-2c-1.6-0.4-3.1-0.6-4.6-0.6
		c-1.3,0-2.3,0.2-3.1,0.6c-0.7,0.4-1.2,0.9-1.2,1.9c0,1.3,1.5,2.4,5.9,4.2l0.6,0.2c3.4,1.4,6.6,2.9,7.6,4c1,1.1,1.6,2.5,1.6,4.1
		c0,2.3-1,4.2-3.1,5.6c-2.1,1.4-4.9,2.1-8.3,2.1c-2,0-3.9-0.2-5.7-0.6C238.8,41.5,237.1,40.9,235.3,40.1z"/>
	<path fill="#FFFFFF" d="M280.5,40.4c-0.8,0.5-2.4,1.2-4.1,1.6c-0.9,0.2-1.9,0.3-3,0.3c-3,0-5-0.7-6.2-2.1c-1.2-1.4-1.8-4-1.8-7.7
		V20.1h-4.5v-0.5L270,9.3h0.6v6.1h9.2v4.6h-9.2v12.1c0,2.2,0.3,3.6,0.8,4.2c0.5,0.6,1.6,1,3,1c0.8,0,1.6-0.1,2.3-0.3
		c1.4-0.5,3-1.4,3.7-1.8V40.4z"/>
	<polygon fill="#FFFFFF" points="2.9,41.9 8.5,41.9 8.5,10.8 27.1,26.9 45.7,10.8 45.7,41.9 51.2,41.9 51.2,2.1 46.3,2.1 27.1,18.8 
		7.9,2.1 2.9,2.1 2.9,41.9 	"/>
</g>
</svg>
